<?xml version="1.0" encoding="UTF-8"?>
<svg id="Layer_1" data-name="Layer 1" xmlns="http://www.w3.org/2000/svg" viewBox="0 0 8 8">
  <g id="Layer_1_copy_2" data-name="Layer 1 copy 2">
    <path d="M2.07,4.59c.12,0,.32,.91,.43,.99,.1,.08,1.03-.04,1.08,.1s-.78,.62-.83,.71,.37,.97,.24,1.05-.81-.55-.92-.55-.81,.64-.93,.55c-.12-.08,.25-.94,.24-1.05s-.87-.6-.81-.71,.97-.05,1.08-.1c.1-.05,.3-.99,.42-.99Z" style="fill: #f3bd40; stroke: #f3bd40; stroke-miterlimit: 10; stroke-width: .06px;"/>
    <path d="M6.06,4.59c.12,0,.32,.91,.43,.99,.1,.08,1.03-.04,1.08,.1,.04,.14-.77,.62-.82,.71-.04,.09,.37,.98,.24,1.06-.13,.08-.82-.55-.93-.56-.11,0-.81,.64-.93,.55-.11-.07,.26-.93,.25-1.05-.01-.11-.87-.6-.81-.71,.05-.11,.97-.05,1.08-.1,.1-.05,.29-.99,.41-.99Z" style="fill: #f3bd40; stroke: #f3bd40; stroke-miterlimit: 10; stroke-width: .06px;"/>
    <path d="M1.96,.59c.12,0,.32,.91,.43,.99,.1,.08,1.03-.04,1.08,.1s-.78,.62-.82,.71,.37,.97,.24,1.05c-.13,.08-.82-.55-.93-.55s-.81,.64-.93,.55c-.11-.08,.26-.94,.24-1.05S.4,1.8,.46,1.69s.97-.05,1.08-.1c.1-.05,.3-.99,.42-.99Z" style="fill: #f3bd40; stroke: #f3bd40; stroke-miterlimit: 10; stroke-width: .06px;"/>
    <path d="M5.95,.59c.12,0,.32,.91,.43,.99,.1,.08,1.03-.04,1.08,.1s-.78,.62-.82,.71,.37,.97,.24,1.05c-.13,.08-.82-.55-.93-.55s-.81,.64-.93,.55c-.12-.08,.25-.94,.24-1.05-.01-.11-.87-.6-.81-.71s.97-.05,1.08-.1,.3-.99,.42-.99Z" style="fill: #f3bd40; stroke: #f3bd40; stroke-miterlimit: 10; stroke-width: .06px;"/>
    <path d="M3.99,2.58c.12,0,.32,.91,.43,.99,.1,.08,1.03-.04,1.08,.1s-.78,.63-.82,.72c-.05,.09,.37,.97,.24,1.05-.13,.08-.82-.55-.93-.55s-.81,.64-.93,.55c-.11-.08,.26-.94,.24-1.05,0-.12-.86-.61-.81-.72s.97-.05,1.08-.1c.1-.05,.3-.99,.42-.99Z" style="fill: #f3bd40; stroke: #f3bd40; stroke-miterlimit: 10; stroke-width: .06px;"/>
  </g>
  <g id="Layer_1-2" data-name="Layer 1">
    <path d="M7.2,7.86H.8c-.36,0-.65-.29-.65-.65V.79C.15,.43,.44,.14,.8,.14H7.2c.36,0,.65,.29,.65,.65V7.2c0,.35-.29,.65-.65,.65Z" style="fill: none; stroke: #f3bd40; stroke-miterlimit: 10; stroke-width: .14px;"/>
  </g>
</svg>