<?xml version="1.0" encoding="UTF-8"?>
<svg id="Layer_1" data-name="Layer 1" xmlns="http://www.w3.org/2000/svg" viewBox="0 0 8 8">
  <g id="Layer_1_copy_2" data-name="Layer 1 copy 2">
    <path d="M1.96,2.58c.12,0,.32,.91,.43,.99,.1,.08,1.03-.04,1.08,.1,.04,.14-.78,.62-.82,.71-.05,.09,.37,.98,.24,1.06s-.82-.55-.93-.56c-.11,0-.81,.64-.93,.55s.26-.93,.24-1.05c0-.11-.87-.6-.81-.71,.05-.11,.97-.05,1.08-.1,.1-.05,.3-.99,.42-.99Z" style="fill: #f3bd40; stroke: #f3bd40; stroke-miterlimit: 10; stroke-width: .06px;"/>
    <path d="M5.95,2.58c.12,0,.32,.91,.43,.99,.1,.08,1.03-.04,1.08,.1s-.78,.63-.82,.72,.37,.97,.24,1.05c-.13,.08-.82-.55-.93-.55s-.81,.63-.93,.55c-.12-.08,.25-.94,.24-1.05-.01-.11-.87-.6-.81-.71s.97-.05,1.08-.1c.1-.06,.3-1,.42-1Z" style="fill: #f3bd40; stroke: #f3bd40; stroke-miterlimit: 10; stroke-width: .06px;"/>
  </g>
  <g id="Layer_1-2" data-name="Layer 1">
    <path d="M7.2,7.86H.8c-.36,0-.65-.29-.65-.65V.79C.15,.43,.44,.14,.8,.14H7.2c.36,0,.65,.29,.65,.65V7.2c0,.35-.29,.65-.65,.65Z" style="fill: none; stroke: #f3bd40; stroke-miterlimit: 10; stroke-width: .14px;"/>
  </g>
</svg>