<?xml version="1.0" encoding="UTF-8"?>
<svg id="Layer_1" data-name="Layer 1" xmlns="http://www.w3.org/2000/svg" viewBox="0 0 8 8">
  <g id="Layer_1_copy_3" data-name="Layer 1 copy 3">
    <path d="M5.95,2.58c.11,0,.43,.99,.43,.99,0,0,1.04,0,1.08,.1,.03,.1-.81,.71-.81,.71,0,0,.32,.99,.23,1.06s-.93-.56-.93-.56c0,0-.84,.62-.93,.56s.24-1.05,.24-1.05c0,0-.85-.62-.81-.72,.03-.1,1.08-.1,1.08-.1,0,0,.31-.99,.42-.99Z" style="fill: #f3bd40; stroke: #f3bd40; stroke-miterlimit: 10; stroke-width: .06px;"/>
  </g>
  <g id="Layer_1_copy_2" data-name="Layer 1 copy 2">
    <path d="M5.99,2.56c.12,0,.32,.91,.43,.99s1.03-.04,1.07,.1c.05,.14-.77,.62-.81,.71s.37,.97,.24,1.05c-.13,.09-.82-.54-.93-.55-.11,0-.81,.64-.93,.55-.12-.07,.25-.93,.24-1.05,0-.11-.86-.6-.81-.71s.97-.05,1.08-.1,.3-.99,.42-.99Z" style="fill: #f3bd40; stroke: #f3bd40; stroke-miterlimit: 10; stroke-width: .06px;"/>
    <path d="M2.68,4.55c.08,.28,.31,.82,.21,.89-.13,.08-.82-.56-.93-.56s-.81,.64-.93,.55c-.11-.08,.26-.94,.24-1.05s-.87-.6-.81-.71c.04-.09,.61-.07,.91-.08" style="fill: #f3bd40; isolation: isolate; opacity: .7; stroke: #f3bd40; stroke-miterlimit: 10; stroke-width: .06px;"/>
    <path d="M1.62,3.43c.11-.28,.25-.85,.34-.85,.12,0,.32,.91,.43,.99,.1,.08,1.03-.04,1.08,.1,.03,.12-.53,.48-.74,.65" style="fill: #f3bd40; isolation: isolate; opacity: .8; stroke: #f3bd40; stroke-miterlimit: 10; stroke-width: .06px;"/>
  </g>
  <g id="Layer_1-2" data-name="Layer 1">
    <path d="M7.2,7.86H.8c-.36,0-.65-.29-.65-.65V.79C.15,.43,.44,.14,.8,.14H7.2c.36,0,.65,.29,.65,.65V7.2c0,.35-.29,.65-.65,.65Z" style="fill: none; stroke: #f3bd40; stroke-miterlimit: 10; stroke-width: .14px;"/>
  </g>
</svg>