<?xml version="1.0" encoding="utf-8"?>
<!-- Generator: Adobe Illustrator 27.0.0, SVG Export Plug-In . SVG Version: 6.00 Build 0)  -->
<svg version="1.1" xmlns="http://www.w3.org/2000/svg" xmlns:xlink="http://www.w3.org/1999/xlink" x="0px" y="0px"
	 viewBox="0 0 8 8" style="enable-background:new 0 0 8 8;" xml:space="preserve">
<style type="text/css">
	.st0{fill:#F3BD40;stroke:#F3BD40;stroke-width:5.820000e-02;stroke-miterlimit:10;}
	.st1{display:none;}
	.st2{display:inline;fill:#F3BD40;}
	.st3{display:inline;fill:#F3BD40;stroke:#F3BD40;stroke-width:5.820000e-02;stroke-miterlimit:10;}
	.st4{fill:none;stroke:#F3BD40;stroke-width:0.25;stroke-miterlimit:10;}
	.st5{display:inline;}
	.st6{fill:#F3BD40;}
	.st7{opacity:0.7;fill:#F3BD40;stroke:#F3BD40;stroke-width:5.820000e-02;stroke-miterlimit:10;enable-background:new    ;}
	.st8{opacity:0.8;fill:#F3BD40;stroke:#F3BD40;stroke-width:5.820000e-02;stroke-miterlimit:10;enable-background:new    ;}
</style>
<g id="Layer_1_copy_2_00000163763138746848978070000000795205486419403454_">
	<g id="Layer_1_copy_2_00000017515389276558104880000002535518193185435568_">
		<path class="st0" d="M5.8,2.6c0.1,0,0.3,0.9,0.4,1s1,0,1.1,0.1c0.1,0.1-0.8,0.6-0.8,0.7s0.4,1,0.2,1C6.6,5.5,5.9,4.9,5.8,4.9
			C5.7,4.9,5,5.5,4.9,5.4C4.8,5.4,5.1,4.5,5.1,4.4c0-0.1-0.9-0.6-0.8-0.7s1,0,1.1-0.1S5.7,2.6,5.8,2.6z"/>
	</g>
	<g id="Layer_1_copy_2_00000031178983314612401340000010847959994830689718_">
		<path class="st0" d="M2.2,2.6c0.1,0,0.3,0.9,0.4,1s1,0,1.1,0.1C3.8,3.8,3,4.3,2.9,4.4s0.4,1,0.2,1C3,5.5,2.3,4.9,2.2,4.9
			c-0.1,0-0.8,0.6-0.9,0.6C1.2,5.4,1.5,4.5,1.5,4.4c0-0.1-0.9-0.6-0.8-0.7s1,0,1.1-0.1S2.1,2.6,2.2,2.6z"/>
	</g>
	<g id="Layer_1_copy_00000183968332697280732260000014810959013654221247_" class="st1">
		<path class="st2" d="M2.4,3.6"/>
		<path class="st3" d="M4,0.6c0.2,0,0.4,1,0.4,1s1-0.1,1.1,0.1S4.7,2.4,4.7,2.4s0.4,0.9,0.2,1C4.8,3.6,4,2.9,4,2.9S3.2,3.6,3.1,3.4
			c-0.2-0.1,0.2-1,0.2-1S2.4,1.9,2.5,1.7c0.1-0.2,1.1-0.1,1.1-0.1S3.8,0.6,4,0.6z"/>
	</g>
	<g id="Layer_1_00000109742653645105124600000017848968474605913750_">
		<path class="st4" d="M7.1,7.8H0.9c-0.4,0-0.6-0.3-0.6-0.6V0.9c0-0.4,0.3-0.6,0.6-0.6h6.2c0.4,0,0.6,0.3,0.6,0.6v6.2
			C7.8,7.5,7.5,7.8,7.1,7.8z"/>
	</g>
</g>
<g id="Layer_1_copy_00000029012348184015772370000002363681360447029430_" class="st1">
	<g id="Layer_1_copy_2_00000029003845083110438660000003626205700641151365_" class="st5">
		<path class="st0" d="M5.8,2.6c0.1,0,0.3,0.9,0.4,1s1,0,1.1,0.1c0.1,0.1-0.8,0.6-0.8,0.7s0.4,1,0.2,1C6.6,5.5,5.9,4.9,5.8,4.9
			C5.7,4.9,5,5.5,4.9,5.4C4.8,5.4,5.1,4.5,5.1,4.4c0-0.1-0.9-0.6-0.8-0.7s1,0,1.1-0.1S5.7,2.6,5.8,2.6z"/>
	</g>
	<g id="Layer_1_copy_2_00000122687750315877852650000011631196407478485651_" class="st5">
		<path class="st0" d="M2.2,2.6c0.1,0,0.3,0.9,0.4,1s1,0,1.1,0.1C3.8,3.8,3,4.3,2.9,4.4s0.4,1,0.2,1C3,5.5,2.3,4.9,2.2,4.9
			c-0.1,0-0.8,0.6-0.9,0.6C1.2,5.4,1.5,4.5,1.5,4.4c0-0.1-0.9-0.6-0.8-0.7s1,0,1.1-0.1S2.1,2.6,2.2,2.6z"/>
	</g>
	<g id="Layer_1_copy_00000006665558728821357240000015241476440765940384_">
		<path class="st2" d="M2.4,3.6"/>
		<path class="st3" d="M4,0.6c0.2,0,0.4,1,0.4,1s1-0.1,1.1,0.1S4.7,2.4,4.7,2.4s0.4,0.9,0.2,1C4.8,3.6,4,2.9,4,2.9S3.2,3.6,3.1,3.4
			c-0.2-0.1,0.2-1,0.2-1S2.4,1.9,2.5,1.7c0.1-0.2,1.1-0.1,1.1-0.1S3.8,0.6,4,0.6z"/>
	</g>
	<g id="Layer_1_00000168109195585029877100000015586434084148368027_" class="st5">
		<path class="st4" d="M7.1,7.8H0.9c-0.4,0-0.6-0.3-0.6-0.6V0.9c0-0.4,0.3-0.6,0.6-0.6h6.2c0.4,0,0.6,0.3,0.6,0.6v6.2
			C7.8,7.5,7.5,7.8,7.1,7.8z"/>
	</g>
</g>
<g id="Layer_1" class="st1">
	<g id="Layer_1_copy_2" class="st5">
		<path class="st6" d="M2.5,3.6"/>
		<path class="st7" d="M2.9,4.5C3,4.8,3.2,5.4,3.1,5.4C3,5.5,2.3,4.9,2.2,4.9C2,4.9,1.3,5.5,1.2,5.4C1.1,5.3,1.5,4.5,1.5,4.4
			S0.6,3.8,0.7,3.7c0-0.1,0.6-0.1,0.9-0.1"/>
		<path class="st8" d="M1.8,3.4c0.1-0.3,0.2-0.9,0.3-0.9c0.1,0,0.3,0.9,0.4,1c0.1,0.1,1,0,1.1,0.1c0,0.1-0.5,0.5-0.7,0.7"/>
		<path class="st0" d="M2.7,4.4"/>
	</g>
	<g id="Layer_1_copy_2_00000028287025542975799340000015031785704694431112_" class="st5">
		<path class="st0" d="M5.8,2.6c0.1,0,0.3,0.9,0.4,1s1,0,1.1,0.1c0.1,0.1-0.8,0.6-0.8,0.7s0.4,1,0.2,1C6.6,5.5,5.9,4.9,5.8,4.9
			C5.7,4.9,5,5.5,4.9,5.4C4.8,5.4,5.1,4.5,5.1,4.4c0-0.1-0.9-0.6-0.8-0.7s1,0,1.1-0.1S5.7,2.6,5.8,2.6z"/>
	</g>
	<g id="Layer_1_copy">
		<path class="st2" d="M2.4,3.6"/>
		<path class="st3" d="M4,0.6c0.2,0,0.4,1,0.4,1s1-0.1,1.1,0.1S4.7,2.4,4.7,2.4s0.4,0.9,0.2,1C4.8,3.6,4,2.9,4,2.9S3.2,3.6,3.1,3.4
			c-0.2-0.1,0.2-1,0.2-1S2.4,1.9,2.5,1.7c0.1-0.2,1.1-0.1,1.1-0.1S3.8,0.6,4,0.6z"/>
	</g>
	<g id="Layer_1_00000137821055754755779530000011485229225770620818_" class="st5">
		<path class="st4" d="M7.1,7.8H0.9c-0.4,0-0.6-0.3-0.6-0.6V0.9c0-0.4,0.3-0.6,0.6-0.6h6.2c0.4,0,0.6,0.3,0.6,0.6v6.2
			C7.8,7.5,7.5,7.8,7.1,7.8z"/>
	</g>
</g>
</svg>
